<svg width="640" height="360" viewBox="0 0 640 360" fill="none" xmlns="http://www.w3.org/2000/svg">
  <defs>
    <linearGradient id="bg2" x1="0" y1="0" x2="640" y2="360" gradientUnits="userSpaceOnUse">
      <stop stop-color="#0b1220" />
      <stop offset="1" stop-color="#0e2137" />
    </linearGradient>
    <linearGradient id="pipe" x1="0" y1="0" x2="0" y2="200" gradientUnits="userSpaceOnUse">
      <stop stop-color="#7be0f1" />
      <stop offset="1" stop-color="#3fa8bd" />
    </linearGradient>
  </defs>
  <rect width="640" height="360" rx="24" fill="url(#bg2)" />
  <rect x="120" y="100" width="400" height="26" rx="12" fill="#1e2f4a" stroke="#7be0f1" stroke-width="6" />
  <rect x="380" y="126" width="26" height="200" rx="12" fill="#1e2f4a" stroke="#7be0f1" stroke-width="6" />
  <rect x="220" y="200" width="220" height="30" rx="14" fill="#1e2f4a" stroke="#7be0f1" stroke-width="6" />
  <circle cx="236" cy="214" r="10" fill="#7be0f1" />
  <circle cx="420" cy="214" r="10" fill="#7be0f1" />
  <path d="M140 188c20 0 28 8 36 24s16 24 36 24h80c20 0 28-8 36-24s16-24 36-24" stroke="#ffcc6f" stroke-width="8" stroke-linecap="round" />
  <path d="M320 70c0 18 12 32 30 32h110" stroke="#ffcc6f" stroke-width="8" stroke-linecap="round" />
  <text x="140" y="70" fill="#7be0f1" font-family="'Space Grotesk', sans-serif" font-size="32" font-weight="700">Trenchless</text>
  <text x="140" y="98" fill="#ffcc6f" font-family="'Space Grotesk', sans-serif" font-size="18">Sewer & drain solutions</text>
</svg>
