<svg width="640" height="360" viewBox="0 0 640 360" fill="none" xmlns="http://www.w3.org/2000/svg">
  <defs>
    <linearGradient id="bgTeam" x1="0" y1="0" x2="640" y2="360" gradientUnits="userSpaceOnUse">
      <stop stop-color="#0b1220" />
      <stop offset="1" stop-color="#10213a" />
    </linearGradient>
  </defs>
  <rect width="640" height="360" rx="24" fill="url(#bgTeam)" />
  <circle cx="160" cy="150" r="44" fill="#7be0f1" />
  <circle cx="160" cy="138" r="20" fill="#0b1220" />
  <path d="M124 192h72c12 0 22 10 22 22v40h-116v-40c0-12 10-22 22-22Z" fill="#1f3555" stroke="#7be0f1" stroke-width="6" />
  <circle cx="320" cy="150" r="44" fill="#ffcc6f" />
  <circle cx="320" cy="138" r="20" fill="#0b1220" />
  <path d="M284 192h72c12 0 22 10 22 22v40h-116v-40c0-12 10-22 22-22Z" fill="#2a4063" stroke="#ffcc6f" stroke-width="6" />
  <circle cx="480" cy="150" r="44" fill="#4cbdd6" />
  <circle cx="480" cy="138" r="20" fill="#0b1220" />
  <path d="M444 192h72c12 0 22 10 22 22v40h-116v-40c0-12 10-22 22-22Z" fill="#1f3c64" stroke="#4cbdd6" stroke-width="6" />
  <rect x="100" y="252" width="440" height="16" rx="8" fill="#0b1628" />
  <text x="150" y="72" fill="#7be0f1" font-family="'Space Grotesk', sans-serif" font-size="30" font-weight="700">Meet the crew</text>
  <text x="150" y="96" fill="#ffcc6f" font-family="'Space Grotesk', sans-serif" font-size="18">Licensed technicians, background-checked</text>
</svg>
