<svg width="640" height="360" viewBox="0 0 640 360" fill="none" xmlns="http://www.w3.org/2000/svg">
  <defs>
    <linearGradient id="bg" x1="0" y1="0" x2="640" y2="360" gradientUnits="userSpaceOnUse">
      <stop stop-color="#0b1220" />
      <stop offset="1" stop-color="#0f1f36" />
    </linearGradient>
    <linearGradient id="accent" x1="0" y1="0" x2="0" y2="200" gradientUnits="userSpaceOnUse">
      <stop stop-color="#7be0f1" />
      <stop offset="1" stop-color="#4cbdd6" />
    </linearGradient>
  </defs>
  <rect width="640" height="360" rx="24" fill="url(#bg)" />
  <circle cx="520" cy="90" r="80" fill="#102844" />
  <rect x="80" y="140" width="420" height="140" rx="26" fill="#1a2e4d" stroke="#4cbdd6" stroke-width="6" />
  <rect x="120" y="170" width="180" height="70" rx="12" fill="#0b1628" stroke="#7be0f1" stroke-width="5" />
  <rect x="320" y="170" width="120" height="70" rx="12" fill="#0b1628" stroke="#7be0f1" stroke-width="5" />
  <rect x="260" y="140" width="140" height="40" rx="14" fill="#7be0f1" />
  <rect x="90" y="200" width="30" height="60" rx="6" fill="#7be0f1" />
  <circle cx="170" cy="290" r="32" fill="#0b1628" stroke="#7be0f1" stroke-width="6" />
  <circle cx="170" cy="290" r="18" fill="#7be0f1" />
  <circle cx="410" cy="290" r="32" fill="#0b1628" stroke="#7be0f1" stroke-width="6" />
  <circle cx="410" cy="290" r="18" fill="#7be0f1" />
  <path d="M500 190h26c18 0 32 14 32 32v26c0 8-6 14-14 14h-44" stroke="#7be0f1" stroke-width="8" stroke-linecap="round" />
  <text x="110" y="120" fill="#7be0f1" font-family="'Space Grotesk', sans-serif" font-size="36" font-weight="700">Floyd's</text>
  <text x="110" y="150" fill="#ffcc6f" font-family="'Space Grotesk', sans-serif" font-size="20">24/7 Service Vans</text>
</svg>
